<svg width="48" height="48" viewBox="0 0 48 48" fill="none" xmlns="http://www.w3.org/2000/svg">
<rect width="48" height="48" rx="24" fill="#130E3D"/>
<path d="M26.5 26.5L31 31M22.5 28C23.2223 28 23.9375 27.8577 24.6048 27.5813C25.272 27.3049 25.8784 26.8998 26.3891 26.3891C26.8998 25.8784 27.3049 25.272 27.5813 24.6048C27.8577 23.9375 28 23.2223 28 22.5C28 21.7777 27.8577 21.0625 27.5813 20.3952C27.3049 19.728 26.8998 19.1216 26.3891 18.6109C25.8784 18.1002 25.272 17.6951 24.6048 17.4187C23.9375 17.1423 23.2223 17 22.5 17C21.0413 17 19.6424 17.5795 18.6109 18.6109C17.5795 19.6424 17 21.0413 17 22.5C17 23.9587 17.5795 25.3576 18.6109 26.3891C19.6424 27.4205 21.0413 28 22.5 28Z" stroke="white" stroke-width="2"/>
</svg>
