<svg width="96" height="48" viewBox="0 0 96 48" fill="none" xmlns="http://www.w3.org/2000/svg">
<rect width="96" height="48" rx="24" fill="#130E3D"/>
<path d="M26.5 26.5L31 31M22.5 28C23.2223 28 23.9375 27.8577 24.6048 27.5813C25.272 27.3049 25.8784 26.8998 26.3891 26.3891C26.8998 25.8784 27.3049 25.272 27.5813 24.6048C27.8577 23.9375 28 23.2223 28 22.5C28 21.7777 27.8577 21.0625 27.5813 20.3952C27.3049 19.728 26.8998 19.1216 26.3891 18.6109C25.8784 18.1002 25.272 17.6951 24.6048 17.4187C23.9375 17.1423 23.2223 17 22.5 17C21.0413 17 19.6424 17.5795 18.6109 18.6109C17.5795 19.6424 17 21.0413 17 22.5C17 23.9587 17.5795 25.3576 18.6109 26.3891C19.6424 27.4205 21.0413 28 22.5 28Z" stroke="white" stroke-width="2"/>
<path d="M44.46 25.9844C44.46 25.752 44.4235 25.5469 44.3506 25.3691C44.2822 25.1868 44.1592 25.0228 43.9814 24.877C43.8083 24.7311 43.5667 24.5921 43.2568 24.46C42.9515 24.3278 42.5641 24.1934 42.0947 24.0566C41.6025 23.9108 41.1582 23.749 40.7617 23.5713C40.3652 23.389 40.0257 23.1816 39.7432 22.9492C39.4606 22.7168 39.2441 22.4502 39.0938 22.1494C38.9434 21.8486 38.8682 21.5046 38.8682 21.1172C38.8682 20.7298 38.9479 20.3721 39.1074 20.0439C39.2669 19.7158 39.4948 19.431 39.791 19.1895C40.0918 18.9434 40.4495 18.752 40.8643 18.6152C41.279 18.4785 41.7415 18.4102 42.252 18.4102C42.9993 18.4102 43.6328 18.5537 44.1523 18.8408C44.6764 19.1234 45.0752 19.4948 45.3486 19.9551C45.6221 20.4108 45.7588 20.8984 45.7588 21.418H44.4463C44.4463 21.0443 44.3665 20.7139 44.207 20.4268C44.0475 20.1351 43.806 19.9072 43.4824 19.7432C43.1589 19.5745 42.7487 19.4902 42.252 19.4902C41.7826 19.4902 41.3952 19.5609 41.0898 19.7021C40.7845 19.8434 40.5566 20.0348 40.4062 20.2764C40.2604 20.5179 40.1875 20.7936 40.1875 21.1035C40.1875 21.3132 40.2308 21.5046 40.3174 21.6777C40.4085 21.8464 40.5475 22.0036 40.7344 22.1494C40.9258 22.2952 41.1673 22.4297 41.459 22.5527C41.7552 22.6758 42.1084 22.7943 42.5186 22.9082C43.0837 23.0677 43.5713 23.2454 43.9814 23.4414C44.3916 23.6374 44.7288 23.8584 44.9932 24.1045C45.262 24.346 45.4603 24.6217 45.5879 24.9316C45.7201 25.237 45.7861 25.5833 45.7861 25.9707C45.7861 26.3763 45.7041 26.7432 45.54 27.0713C45.376 27.3994 45.1413 27.6797 44.8359 27.9121C44.5306 28.1445 44.1637 28.3245 43.7354 28.4521C43.3115 28.5752 42.8376 28.6367 42.3135 28.6367C41.8532 28.6367 41.3997 28.5729 40.9531 28.4453C40.5111 28.3177 40.1077 28.1263 39.7432 27.8711C39.3831 27.6159 39.0938 27.3014 38.875 26.9277C38.6608 26.5495 38.5537 26.112 38.5537 25.6152H39.8662C39.8662 25.957 39.9323 26.251 40.0645 26.4971C40.1966 26.7386 40.3766 26.9391 40.6045 27.0986C40.8369 27.2581 41.099 27.3766 41.3906 27.4541C41.6868 27.527 41.9945 27.5635 42.3135 27.5635C42.7738 27.5635 43.1634 27.4997 43.4824 27.3721C43.8014 27.2445 44.043 27.0622 44.207 26.8252C44.3757 26.5882 44.46 26.3079 44.46 25.9844ZM50.3457 28.6367C49.8307 28.6367 49.3636 28.5501 48.9443 28.377C48.5296 28.1992 48.1719 27.9508 47.8711 27.6318C47.5749 27.3128 47.347 26.9346 47.1875 26.4971C47.028 26.0596 46.9482 25.5811 46.9482 25.0615V24.7744C46.9482 24.1729 47.0371 23.6374 47.2148 23.168C47.3926 22.694 47.6341 22.293 47.9395 21.9648C48.2448 21.6367 48.5911 21.3883 48.9785 21.2197C49.3659 21.0511 49.7669 20.9668 50.1816 20.9668C50.7103 20.9668 51.166 21.0579 51.5488 21.2402C51.9362 21.4225 52.2529 21.6777 52.499 22.0059C52.7451 22.3294 52.9274 22.7122 53.0459 23.1543C53.1644 23.5918 53.2236 24.0703 53.2236 24.5898V25.1572H47.7002V24.125H51.959V24.0293C51.9408 23.7012 51.8724 23.3822 51.7539 23.0723C51.64 22.7624 51.4577 22.5072 51.207 22.3066C50.9564 22.1061 50.6146 22.0059 50.1816 22.0059C49.8945 22.0059 49.6302 22.0674 49.3887 22.1904C49.1471 22.3089 48.9398 22.4867 48.7666 22.7236C48.5934 22.9606 48.459 23.25 48.3633 23.5918C48.2676 23.9336 48.2197 24.3278 48.2197 24.7744V25.0615C48.2197 25.4124 48.2676 25.7428 48.3633 26.0527C48.4635 26.3581 48.6071 26.627 48.7939 26.8594C48.9854 27.0918 49.2155 27.2741 49.4844 27.4062C49.7578 27.5384 50.0677 27.6045 50.4141 27.6045C50.8607 27.6045 51.2389 27.5133 51.5488 27.3311C51.8587 27.1488 52.1299 26.9049 52.3623 26.5996L53.1279 27.208C52.9684 27.4495 52.7656 27.6797 52.5195 27.8984C52.2734 28.1172 51.9704 28.2949 51.6104 28.4316C51.2549 28.5684 50.8333 28.6367 50.3457 28.6367ZM59.0615 27.2354V23.4277C59.0615 23.1361 59.0023 22.8831 58.8838 22.6689C58.7699 22.4502 58.5967 22.2816 58.3643 22.1631C58.1318 22.0446 57.8447 21.9854 57.5029 21.9854C57.1839 21.9854 56.9036 22.04 56.6621 22.1494C56.4251 22.2588 56.2383 22.4023 56.1016 22.5801C55.9694 22.7578 55.9033 22.9492 55.9033 23.1543H54.6387C54.6387 22.89 54.707 22.6279 54.8438 22.3682C54.9805 22.1084 55.1764 21.8737 55.4316 21.6641C55.6914 21.4499 56.0013 21.2812 56.3613 21.1582C56.7259 21.0306 57.1315 20.9668 57.5781 20.9668C58.1159 20.9668 58.5898 21.0579 59 21.2402C59.4147 21.4225 59.7383 21.6982 59.9707 22.0674C60.2077 22.432 60.3262 22.89 60.3262 23.4414V26.8867C60.3262 27.1328 60.3467 27.3949 60.3877 27.6729C60.4333 27.9508 60.4993 28.1901 60.5859 28.3906V28.5H59.2666C59.2028 28.3542 59.1527 28.1605 59.1162 27.9189C59.0798 27.6729 59.0615 27.445 59.0615 27.2354ZM59.2803 24.0156L59.2939 24.9043H58.0156C57.6556 24.9043 57.3343 24.9339 57.0518 24.9932C56.7692 25.0479 56.5322 25.1322 56.3408 25.2461C56.1494 25.36 56.0036 25.5036 55.9033 25.6768C55.8031 25.8454 55.7529 26.0436 55.7529 26.2715C55.7529 26.5039 55.8053 26.7158 55.9102 26.9072C56.015 27.0986 56.1722 27.2513 56.3818 27.3652C56.596 27.4746 56.8581 27.5293 57.168 27.5293C57.5553 27.5293 57.8971 27.4473 58.1934 27.2832C58.4896 27.1191 58.7243 26.9186 58.8975 26.6816C59.0752 26.4447 59.1709 26.2145 59.1846 25.9912L59.7246 26.5996C59.6927 26.791 59.6061 27.0029 59.4648 27.2354C59.3236 27.4678 59.1344 27.6911 58.8975 27.9053C58.665 28.1149 58.387 28.2904 58.0635 28.4316C57.7445 28.5684 57.3844 28.6367 56.9834 28.6367C56.4821 28.6367 56.0423 28.5387 55.6641 28.3428C55.2904 28.1468 54.9987 27.8848 54.7891 27.5566C54.584 27.224 54.4814 26.8525 54.4814 26.4424C54.4814 26.0459 54.5589 25.6973 54.7139 25.3965C54.8688 25.0911 55.0921 24.8382 55.3838 24.6377C55.6755 24.4326 56.0264 24.2777 56.4365 24.1729C56.8467 24.068 57.3047 24.0156 57.8105 24.0156H59.2803ZM63.5801 22.2656V28.5H62.3154V21.1035H63.5459L63.5801 22.2656ZM65.8906 21.0625L65.8838 22.2383C65.779 22.2155 65.6787 22.2018 65.583 22.1973C65.4919 22.1882 65.387 22.1836 65.2686 22.1836C64.9769 22.1836 64.7194 22.2292 64.4961 22.3203C64.2728 22.4115 64.0837 22.5391 63.9287 22.7031C63.7738 22.8672 63.6507 23.0632 63.5596 23.291C63.473 23.5143 63.416 23.7604 63.3887 24.0293L63.0332 24.2344C63.0332 23.7878 63.0765 23.3685 63.1631 22.9766C63.2542 22.5846 63.3932 22.2383 63.5801 21.9375C63.7669 21.6322 64.0039 21.3952 64.291 21.2266C64.5827 21.0534 64.929 20.9668 65.3301 20.9668C65.4212 20.9668 65.526 20.9782 65.6445 21.001C65.763 21.0192 65.8451 21.0397 65.8906 21.0625ZM69.8828 27.5977C70.1836 27.5977 70.4616 27.5361 70.7168 27.4131C70.972 27.29 71.1816 27.1214 71.3457 26.9072C71.5098 26.6885 71.6032 26.4401 71.626 26.1621H72.8291C72.8063 26.5996 72.6582 27.0075 72.3848 27.3857C72.1159 27.7594 71.7627 28.0625 71.3252 28.2949C70.8877 28.5228 70.4069 28.6367 69.8828 28.6367C69.3268 28.6367 68.8415 28.5387 68.4268 28.3428C68.0166 28.1468 67.6748 27.8779 67.4014 27.5361C67.1325 27.1943 66.9297 26.8024 66.793 26.3604C66.6608 25.9137 66.5947 25.4421 66.5947 24.9453V24.6582C66.5947 24.1615 66.6608 23.6921 66.793 23.25C66.9297 22.8034 67.1325 22.4092 67.4014 22.0674C67.6748 21.7256 68.0166 21.4567 68.4268 21.2607C68.8415 21.0648 69.3268 20.9668 69.8828 20.9668C70.4616 20.9668 70.9674 21.0853 71.4004 21.3223C71.8333 21.5547 72.1729 21.8737 72.4189 22.2793C72.6696 22.6803 72.8063 23.1361 72.8291 23.6465H71.626C71.6032 23.3411 71.5166 23.0654 71.3662 22.8193C71.2204 22.5732 71.0199 22.3773 70.7646 22.2314C70.514 22.0811 70.2201 22.0059 69.8828 22.0059C69.4954 22.0059 69.1696 22.0833 68.9053 22.2383C68.6455 22.3887 68.4382 22.5938 68.2832 22.8535C68.1328 23.1087 68.0234 23.3936 67.9551 23.708C67.8913 24.0179 67.8594 24.3346 67.8594 24.6582V24.9453C67.8594 25.2689 67.8913 25.5879 67.9551 25.9023C68.0189 26.2168 68.126 26.5016 68.2764 26.7568C68.4313 27.012 68.6387 27.2171 68.8984 27.3721C69.1628 27.5225 69.4909 27.5977 69.8828 27.5977ZM75.5156 18V28.5H74.251V18H75.5156ZM75.2148 24.5215L74.6885 24.501C74.693 23.9951 74.7682 23.528 74.9141 23.0996C75.0599 22.6667 75.265 22.2907 75.5293 21.9717C75.7936 21.6527 76.1081 21.4066 76.4727 21.2334C76.8418 21.0557 77.2497 20.9668 77.6963 20.9668C78.0609 20.9668 78.389 21.0169 78.6807 21.1172C78.9723 21.2129 79.2207 21.3678 79.4258 21.582C79.6354 21.7962 79.7949 22.0742 79.9043 22.416C80.0137 22.7533 80.0684 23.1657 80.0684 23.6533V28.5H78.7969V23.6396C78.7969 23.2523 78.7399 22.9424 78.626 22.71C78.512 22.473 78.3457 22.3021 78.127 22.1973C77.9082 22.0879 77.6393 22.0332 77.3203 22.0332C77.0059 22.0332 76.7188 22.0993 76.459 22.2314C76.2038 22.3636 75.9827 22.5459 75.7959 22.7783C75.6136 23.0107 75.4701 23.2773 75.3652 23.5781C75.265 23.8743 75.2148 24.1888 75.2148 24.5215Z" fill="white"/>
</svg>
